 <svg version="1.0" xmlns="http://www.w3.org/2000/svg" width="300.000000pt" height="273.000000pt" viewBox="0 0 300.000000 273.000000" preserveAspectRatio="xMidYMid meet">  <g transform="translate(0.000000,273.000000) scale(0.100000,-0.100000)" fill="#13357b" stroke="none"> <path d="M1512 2482 c-10 -10 -45 -66 -76 -123 l-58 -105 -67 4 c-53 2 -72 -1 -99 -17 -61 -39 -69 -106 -18 -157 33 -33 37 -34 109 -34 59 0 76 -3 81 -16 9 -23 8 -24 -14 -24 -55 0 -184 -35 -258 -70 -326 -155 -502 -500 -438 -860 51 -286 287 -537 573 -611 151 -38 373 -21 493 39 60 30 68 42 45 65 -14 14 -20 14 -68 -8 -80 -35 -159 -57 -170 -46 -6 6 -1 13 11 20 31 17 117 129 162 214 23 42 45 77 49 77 9 0 98 -62 136 -94 l30 -26 -48 -43 c-49 -43 -59 -70 -31 -81 49 -19 207 150 283 302 71 141 94 352 57 517 -22 100 -90 241 -156 323 -81 100 -220 199 -334 238 -43 15 -46 18 -46 50 l0 34 55 0 c66 0 102 15 121 51 18 36 18 67 -1 103 -8 15 -15 53 -15 83 0 67 -11 90 -48 98 -42 9 -81 -10 -93 -45 -18 -51 -26 -34 -21 44 4 65 2 76 -17 95 -28 28 -103 29 -129 3z m80 -136 l0 -89 -66 0 c-36 0 -66 4 -65 9 0 5 20 46 45 92 37 66 50 83 66 80 18 -3 20 -10 20 -92z m163 -73 c-3 -48 -17 -62 -50 -50 -10 5 -9 15 8 51 28 61 46 60 42 -1z m-88 -27 c-2 -42 -2 -43 -24 -28 -27 17 -26 13 -13 46 5 14 16 26 24 26 12 0 15 -11 13 -44z m54 -85 c66 3 82 -8 59 -36 -19 -23 -522 -22 -544 1 -19 19 -20 38 -3 53 9 6 83 12 198 13 166 3 186 1 205 -15 17 -14 36 -18 85 -16z m-128 -123 c-2 -5 -3 -48 -3 -98 0 -79 -2 -90 -17 -90 -10 0 -25 12 -34 28 -44 78 -89 162 -89 167 0 3 33 5 73 3 39 -2 71 -6 70 -10z m-147 -73 c9 -20 20 -38 24 -40 8 -5 2 -45 -7 -45 -2 0 -16 14 -30 31 -16 19 -33 29 -43 26 -25 -6 -44 8 -37 28 4 9 11 14 16 11 5 -3 14 1 21 9 20 24 38 18 56 -20z m-116 -23 c0 -5 -10 -17 -21 -28 -12 -10 -39 -41 -60 -67 -32 -40 -37 -52 -29 -68 6 -10 16 -19 22 -19 6 0 46 37 89 83 l78 82 1 -187 0 -188 -27 0 c-34 0 -148 24 -186 39 l-28 11 21 39 c23 46 26 77 8 84 -22 8 -44 -10 -63 -52 -10 -23 -22 -41 -27 -41 -18 0 -176 117 -167 124 116 93 172 125 294 167 90 31 95 32 95 21z m526 -128 c35 -24 66 -49 69 -55 10 -15 -7 -31 -90 -88 l-73 -51 -26 56 c-14 30 -39 75 -54 98 -25 37 -29 50 -24 94 l4 50 66 -29 c36 -16 94 -50 128 -75z m-326 -14 c11 -6 29 -9 39 -5 13 4 26 -7 48 -37 32 -45 83 -141 83 -156 0 -12 -99 -40 -172 -48 l-58 -7 0 164 0 164 20 -32 c10 -17 28 -37 40 -43z m-574 -145 c30 -25 73 -54 94 -65 22 -11 40 -24 40 -28 0 -4 -9 -39 -20 -77 -11 -39 -23 -105 -27 -147 l-6 -78 -158 0 c-137 0 -159 2 -159 15 0 39 33 171 58 232 25 61 105 193 118 193 2 0 29 -20 60 -45z m1071 -17 c72 -110 109 -204 119 -312 l6 -66 -155 0 -155 0 -7 68 c-6 63 -33 188 -49 222 -4 11 6 21 36 38 24 12 68 42 98 67 30 24 57 44 60 45 3 0 24 -28 47 -62z m-659 -147 l42 -1 0 -115 0 -115 -156 0 -157 0 7 63 c7 57 34 194 42 208 1 3 43 -5 91 -17 48 -13 107 -23 131 -23z m87 39 c4 -6 1 -18 -6 -26 -11 -14 -13 -14 -21 0 -15 26 12 51 27 26z m293 -77 c11 -49 23 -112 27 -140 l7 -53 -65 0 c-57 0 -67 -3 -72 -20 -10 -33 3 -40 72 -40 l65 0 -6 -52 c-4 -29 -16 -93 -28 -141 -19 -82 -22 -88 -42 -82 -65 20 -175 45 -203 45 l-33 0 0 115 0 115 49 0 c50 0 67 13 55 45 -4 11 -21 15 -55 15 l-49 0 0 115 0 115 36 0 c39 0 171 28 194 41 26 15 28 11 48 -78z m-662 -214 c10 -17 -13 -36 -27 -22 -12 12 -4 33 11 33 5 0 12 -5 16 -11z m374 -4 c0 -16 -27 -32 -37 -22 -3 4 -3 13 0 22 8 20 37 20 37 0z m364 0 c3 -9 -1 -18 -10 -22 -19 -7 -28 2 -21 22 8 19 23 19 31 0z m-781 -112 c4 -43 16 -111 27 -150 11 -40 20 -75 20 -78 0 -2 -13 -11 -29 -20 -17 -8 -60 -38 -96 -65 -51 -39 -70 -48 -80 -40 -7 6 -32 42 -55 81 -49 80 -95 209 -105 292 l-6 57 159 0 159 0 6 -77z m367 -37 l0 -113 -65 -7 c-35 -4 -94 -16 -131 -27 -36 -11 -67 -19 -69 -17 -6 7 -45 220 -45 247 l0 31 155 0 155 0 0 -114z m736 48 c-12 -122 -76 -271 -158 -368 -4 -5 -32 10 -65 36 -32 25 -77 55 -100 66 l-41 21 19 61 c15 50 39 193 39 237 0 10 36 13 156 13 l156 0 -6 -66z m-688 -198 c3 -13 -1 -17 -14 -14 -11 2 -20 11 -22 22 -3 13 1 17 14 14 11 -2 20 -11 22 -22z m-48 -212 l0 -185 -23 18 c-62 50 -143 156 -191 251 l-26 52 22 9 c20 7 59 16 153 35 11 2 30 4 43 5 l22 1 0 -186z m228 159 c34 -9 62 -20 62 -25 0 -38 -112 -208 -184 -278 l-46 -44 0 188 0 188 53 -7 c28 -4 80 -14 115 -22z m-502 -95 c27 -62 99 -166 152 -220 25 -26 43 -50 41 -53 -7 -7 -99 21 -173 52 -57 23 -142 78 -195 123 l-23 20 23 20 c34 29 140 100 149 100 4 0 15 -19 26 -42z m319 -258 c3 -5 19 -10 36 -10 19 0 29 -5 29 -15 0 -12 -17 -15 -90 -15 -86 0 -90 1 -80 19 6 12 17 17 29 14 11 -3 28 0 38 6 23 13 30 13 38 1z"></path> <path d="M1884 2045 c-9 -24 1 -39 40 -60 32 -18 37 -18 51 -4 20 20 12 41 -24 62 -36 21 -60 22 -67 2z"></path> <path d="M2042 1938 c-7 -7 -12 -17 -12 -23 0 -20 57 -67 76 -63 29 5 28 37 -2 69 -30 32 -44 35 -62 17z"></path> <path d="M2167 1793 c-20 -20 21 -93 52 -93 37 0 42 24 15 63 -23 34 -51 47 -67 30z"></path> <path d="M2261 1626 c-17 -21 21 -109 45 -104 31 6 37 31 18 73 -21 43 -44 54 -63 31z"></path> <path d="M2321 1446 c-11 -13 -9 -33 6 -88 5 -22 36 -23 52 -4 16 19 -3 91 -25 100 -21 8 -20 8 -33 -8z"></path> <path d="M463 1356 c-33 -15 -63 -60 -63 -96 0 -32 25 -74 54 -89 18 -10 27 -25 31 -50 13 -83 58 -240 85 -299 109 -232 312 -416 559 -503 484 -171 1022 85 1204 572 33 88 57 199 61 279 3 70 -6 100 -29 100 -23 0 -32 -29 -38 -120 -21 -308 -223 -599 -508 -735 -131 -62 -214 -79 -379 -79 -120 0 -160 4 -229 22 -319 87 -571 348 -641 664 -26 113 -26 145 -1 153 11 3 27 22 36 42 43 90 -49 180 -142 139z m68 -56 c26 -15 26 -66 -1 -80 -14 -8 -26 -8 -40 0 -26 14 -27 65 -2 79 21 13 20 13 43 1z"></path> </g> </svg> 